<?xml version="1.0" encoding="UTF-8" standalone="no"?>
<!-- Created with Inkscape (http://www.inkscape.org/) -->

<svg
   xmlns:dc="http://purl.org/dc/elements/1.1/"
   xmlns:cc="http://creativecommons.org/ns#"
   xmlns:rdf="http://www.w3.org/1999/02/22-rdf-syntax-ns#"
   xmlns:svg="http://www.w3.org/2000/svg"
   xmlns="http://www.w3.org/2000/svg"
   xmlns:sodipodi="http://sodipodi.sourceforge.net/DTD/sodipodi-0.dtd"
   xmlns:inkscape="http://www.inkscape.org/namespaces/inkscape"
   width="210mm"
   height="297mm"
   viewBox="0 0 744.09448819 1052.3622047"
   id="svg2"
   version="1.1"
   inkscape:version="0.91 r13725"
   sodipodi:docname="tree.svg">
  <defs
     id="defs4" />
  <sodipodi:namedview
     id="base"
     pagecolor="#ffffff"
     bordercolor="#666666"
     borderopacity="1.0"
     inkscape:pageopacity="0.0"
     inkscape:pageshadow="2"
     inkscape:zoom="1.1640479"
     inkscape:cx="372.04724"
     inkscape:cy="526.1811"
     inkscape:document-units="px"
     inkscape:current-layer="layer1"
     showgrid="false"
     showguides="false"
     inkscape:window-width="2560"
     inkscape:window-height="1391"
     inkscape:window-x="2560"
     inkscape:window-y="1"
     inkscape:window-maximized="1" />
  <metadata
     id="metadata7">
    <rdf:RDF>
      <cc:Work
         rdf:about="">
        <dc:format>image/svg+xml</dc:format>
        <dc:type
           rdf:resource="http://purl.org/dc/dcmitype/StillImage" />
        <dc:title></dc:title>
      </cc:Work>
    </rdf:RDF>
  </metadata>
  <g
     inkscape:label="Layer 1"
     inkscape:groupmode="layer"
     id="layer1">
    <path
       style="fill:none;fill-rule:evenodd;stroke:#502d16;stroke-width:1px;stroke-linecap:butt;stroke-linejoin:miter;stroke-opacity:1"
       d="m 92.779688,960.44159 c 0,0 134.874172,-54.12149 150.337462,-116.83368 15.46328,-62.7122 45.53077,-310.98377 48.10798,-374.55504"
       id="path4136"
       inkscape:connector-curvature="0" />
    <path
       inkscape:connector-curvature="0"
       id="path4147"
       d="m 607.67671,960.44159 c 0,0 -134.87417,-54.12149 -150.33746,-116.83368 -15.46328,-62.7122 -45.53077,-310.98377 -48.10798,-374.55504"
       style="fill:none;fill-rule:evenodd;stroke:#502d16;stroke-width:1px;stroke-linecap:butt;stroke-linejoin:miter;stroke-opacity:1" />
    <ellipse
       style="fill:#808000;fill-opacity:1;stroke:#502d16;stroke-width:2;stroke-miterlimit:4;stroke-dasharray:none;stroke-opacity:1"
       id="path4157"
       cx="348.78293"
       cy="259.00995"
       rx="305.82935"
       ry="228.94247" />
    <path
       style="fill:none;fill-rule:evenodd;stroke:#000000;stroke-width:1px;stroke-linecap:butt;stroke-linejoin:miter;stroke-opacity:1"
       d="M 91.920617,960.44159 608.2224,961.30066"
       id="path4161"
       inkscape:connector-curvature="0" />
    <path
       style="fill:#502d16;fill-opacity:1;stroke:#502d16;stroke-width:1.71814239;stroke-miterlimit:4;stroke-dasharray:none;stroke-opacity:1"
       d="m 108.20004,959.19794 -9.304414,-0.47449 5.868124,-2.50878 c 9.92579,-4.24352 37.23498,-18.07889 49.34908,-25.00121 15.41745,-8.80994 36.11125,-22.6705 47.15106,-31.58144 18.93092,-15.28037 34.31496,-33.60251 39.87443,-47.48983 5.88882,-14.71001 16.12938,-75.80747 28.4233,-169.5798 7.95651,-60.68857 17.57132,-146.98666 20.29442,-182.15342 0.56709,-7.32359 1.32075,-13.64892 1.67481,-14.05629 0.35745,-0.4113 6.69439,-0.0962 14.24952,0.70851 28.19569,3.00322 66.60518,2.6414 93.42982,-0.88013 5.15909,-0.67728 9.51608,-1.09551 9.68219,-0.9294 0.16611,0.16611 0.88361,7.02705 1.59446,15.24654 7.80665,90.26877 27.41494,244.19299 39.93293,313.47175 4.30739,23.83856 6.74396,33.3585 10.66389,41.66495 13.6544,28.93412 52.26237,59.84053 112.15806,89.78466 9.21353,4.6062 19.65125,9.62794 23.19492,11.15942 3.54367,1.53148 6.60411,2.93043 6.80098,3.10879 0.57,0.5164 -484.72215,0.0362 -495.03758,-0.48983 z"
       id="path4165"
       inkscape:connector-curvature="0" />
  </g>
</svg>
